HIERARCHY
ROOT mixamorig1:Hips
{
	OFFSET -0.000023 99.754364 3.007882
	CHANNELS 6 Xposition Yposition Zposition Xrotation Yrotation Zrotation
	JOINT mixamorig1:Spine
	{
		OFFSET 0.000000 9.717224 -1.180207
		CHANNELS 6 Xposition Yposition Zposition Xrotation Yrotation Zrotation
		JOINT mixamorig1:Spine1
		{
			OFFSET 0.000000 11.336823 -1.376932
			CHANNELS 6 Xposition Yposition Zposition Xrotation Yrotation Zrotation
			JOINT mixamorig1:Spine2
			{
				OFFSET 0.000000 12.956345 -1.573653
				CHANNELS 6 Xposition Yposition Zposition Xrotation Yrotation Zrotation
				JOINT mixamorig1:Neck
				{
					OFFSET 0.000000 14.575974 -1.770437
					CHANNELS 6 Xposition Yposition Zposition Xrotation Yrotation Zrotation
					JOINT mixamorig1:Head
					{
						OFFSET 0.000000 6.720200 1.972157
						CHANNELS 6 Xposition Yposition Zposition Xrotation Yrotation Zrotation
						JOINT mixamorig1:HeadTop_End
						{
							OFFSET 0.000000 20.999847 6.162764
							CHANNELS 6 Xposition Yposition Zposition Xrotation Yrotation Zrotation
							End Site
							{
								OFFSET 0.000000 21.885452 0.000000
							}
						}
					}
				}
				JOINT mixamorig1:LeftShoulder
				{
					OFFSET 6.140116 12.877853 -1.799544
					CHANNELS 6 Xposition Yposition Zposition Xrotation Yrotation Zrotation
					JOINT mixamorig1:LeftArm
					{
						OFFSET 12.545031 -3.431427 -0.058010
						CHANNELS 6 Xposition Yposition Zposition Xrotation Yrotation Zrotation
						JOINT mixamorig1:LeftForeArm
						{
							OFFSET 25.447281 -1.876373 -1.505625
							CHANNELS 6 Xposition Yposition Zposition Xrotation Yrotation Zrotation
							JOINT mixamorig1:LeftHand
							{
								OFFSET 23.367504 0.877640 0.971305
								CHANNELS 6 Xposition Yposition Zposition Xrotation Yrotation Zrotation
								JOINT mixamorig1:LeftHandThumb1
								{
									OFFSET 3.575478 -1.761887 3.039434
									CHANNELS 6 Xposition Yposition Zposition Xrotation Yrotation Zrotation
									JOINT mixamorig1:LeftHandThumb2
									{
										OFFSET 2.860405 -1.409454 2.431552
										CHANNELS 6 Xposition Yposition Zposition Xrotation Yrotation Zrotation
										JOINT mixamorig1:LeftHandThumb3
										{
											OFFSET 2.578941 -1.801514 1.750709
											CHANNELS 6 Xposition Yposition Zposition Xrotation Yrotation Zrotation
											JOINT mixamorig1:LeftHandThumb4
											{
												OFFSET 2.408989 -1.461151 1.064221
												CHANNELS 6 Xposition Yposition Zposition Xrotation Yrotation Zrotation
												End Site
												{
													OFFSET 2.176476 -1.503357 1.440013
												}
											}
										}
									}
								}
								JOINT mixamorig1:LeftHandIndex1
								{
									OFFSET 11.357018 -1.306473 4.439679
									CHANNELS 6 Xposition Yposition Zposition Xrotation Yrotation Zrotation
									JOINT mixamorig1:LeftHandIndex2
									{
										OFFSET 3.215240 -0.390930 0.624045
										CHANNELS 6 Xposition Yposition Zposition Xrotation Yrotation Zrotation
										JOINT mixamorig1:LeftHandIndex3
										{
											OFFSET 2.938980 -0.735489 0.560646
											CHANNELS 6 Xposition Yposition Zposition Xrotation Yrotation Zrotation
											JOINT mixamorig1:LeftHandIndex4
											{
												OFFSET 2.552437 -0.779205 0.483288
												CHANNELS 6 Xposition Yposition Zposition Xrotation Yrotation Zrotation
												End Site
												{
													OFFSET 2.555870 -0.777603 0.467434
												}
											}
										}
									}
								}
								JOINT mixamorig1:LeftHandMiddle1
								{
									OFFSET 12.195602 -0.657242 2.108765
									CHANNELS 6 Xposition Yposition Zposition Xrotation Yrotation Zrotation
									JOINT mixamorig1:LeftHandMiddle2
									{
										OFFSET 3.379944 -0.547394 0.236206
										CHANNELS 6 Xposition Yposition Zposition Xrotation Yrotation Zrotation
										JOINT mixamorig1:LeftHandMiddle3
										{
											OFFSET 3.043900 -0.829651 0.195068
											CHANNELS 6 Xposition Yposition Zposition Xrotation Yrotation Zrotation
											JOINT mixamorig1:LeftHandMiddle4
											{
												OFFSET 2.806625 -0.600723 0.188473
												CHANNELS 6 Xposition Yposition Zposition Xrotation Yrotation Zrotation
												End Site
												{
													OFFSET 2.806618 -0.600739 0.188510
												}
											}
										}
									}
								}
								JOINT mixamorig1:LeftHandRing1
								{
									OFFSET 12.563576 -0.458878 -0.154891
									CHANNELS 6 Xposition Yposition Zposition Xrotation Yrotation Zrotation
									JOINT mixamorig1:LeftHandRing2
									{
										OFFSET 2.596565 -0.829819 0.032336
										CHANNELS 6 Xposition Yposition Zposition Xrotation Yrotation Zrotation
										JOINT mixamorig1:LeftHandRing3
										{
											OFFSET 2.548286 -0.608398 0.044838
											CHANNELS 6 Xposition Yposition Zposition Xrotation Yrotation Zrotation
											JOINT mixamorig1:LeftHandRing4
											{
												OFFSET 2.167870 -0.507812 0.038965
												CHANNELS 6 Xposition Yposition Zposition Xrotation Yrotation Zrotation
												End Site
												{
													OFFSET 2.167732 -0.508163 0.042114
												}
											}
										}
									}
								}
								JOINT mixamorig1:LeftHandPinky1
								{
									OFFSET 11.341652 -0.310532 -2.253323
									CHANNELS 6 Xposition Yposition Zposition Xrotation Yrotation Zrotation
									JOINT mixamorig1:LeftHandPinky2
									{
										OFFSET 2.648827 -0.669128 -0.120024
										CHANNELS 6 Xposition Yposition Zposition Xrotation Yrotation Zrotation
										JOINT mixamorig1:LeftHandPinky3
										{
											OFFSET 2.075249 -0.703857 -0.105192
											CHANNELS 6 Xposition Yposition Zposition Xrotation Yrotation Zrotation
											JOINT mixamorig1:LeftHandPinky4
											{
												OFFSET 1.850784 -0.684036 -0.097376
												CHANNELS 6 Xposition Yposition Zposition Xrotation Yrotation Zrotation
												End Site
												{
													OFFSET 1.850731 -0.683411 -0.102854
												}
											}
										}
									}
								}
							}
						}
					}
				}
				JOINT mixamorig1:RightShoulder
				{
					OFFSET -6.140133 12.877823 -1.741387
					CHANNELS 6 Xposition Yposition Zposition Xrotation Yrotation Zrotation
					JOINT mixamorig1:RightArm
					{
						OFFSET -12.545002 -3.431366 0.058123
						CHANNELS 6 Xposition Yposition Zposition Xrotation Yrotation Zrotation
						JOINT mixamorig1:RightForeArm
						{
							OFFSET -25.447330 -1.876465 -1.671036
							CHANNELS 6 Xposition Yposition Zposition Xrotation Yrotation Zrotation
							JOINT mixamorig1:RightHand
							{
								OFFSET -23.367435 0.877640 0.912149
								CHANNELS 6 Xposition Yposition Zposition Xrotation Yrotation Zrotation
								JOINT mixamorig1:RightHandThumb1
								{
									OFFSET -3.655281 -1.787811 3.110017
									CHANNELS 6 Xposition Yposition Zposition Xrotation Yrotation Zrotation
									JOINT mixamorig1:RightHandThumb2
									{
										OFFSET -2.924309 -1.430252 2.488113
										CHANNELS 6 Xposition Yposition Zposition Xrotation Yrotation Zrotation
										JOINT mixamorig1:RightHandThumb3
										{
											OFFSET -2.528549 -1.776962 1.706924
											CHANNELS 6 Xposition Yposition Zposition Xrotation Yrotation Zrotation
											JOINT mixamorig1:RightHandThumb4
											{
												OFFSET -2.443375 -1.162323 1.073468
												CHANNELS 6 Xposition Yposition Zposition Xrotation Yrotation Zrotation
												End Site
												{
													OFFSET -2.204521 -1.202744 1.472025
												}
											}
										}
									}
								}
								JOINT mixamorig1:RightHandIndex1
								{
									OFFSET -11.888382 -1.247833 4.755188
									CHANNELS 6 Xposition Yposition Zposition Xrotation Yrotation Zrotation
									JOINT mixamorig1:RightHandIndex2
									{
										OFFSET -3.042244 -0.516434 0.442817
										CHANNELS 6 Xposition Yposition Zposition Xrotation Yrotation Zrotation
										JOINT mixamorig1:RightHandIndex3
										{
											OFFSET -2.738869 -0.708374 0.392164
											CHANNELS 6 Xposition Yposition Zposition Xrotation Yrotation Zrotation
											JOINT mixamorig1:RightHandIndex4
											{
												OFFSET -2.432571 -0.620773 0.348507
												CHANNELS 6 Xposition Yposition Zposition Xrotation Yrotation Zrotation
												End Site
												{
													OFFSET -2.433441 -0.620270 0.343348
												}
											}
										}
									}
								}
								JOINT mixamorig1:RightHandMiddle1
								{
									OFFSET -12.008347 -0.748550 2.098396
									CHANNELS 6 Xposition Yposition Zposition Xrotation Yrotation Zrotation
									JOINT mixamorig1:RightHandMiddle2
									{
										OFFSET -3.442291 -0.415817 0.287318
										CHANNELS 6 Xposition Yposition Zposition Xrotation Yrotation Zrotation
										JOINT mixamorig1:RightHandMiddle3
										{
											OFFSET -3.106178 -0.837677 0.240102
											CHANNELS 6 Xposition Yposition Zposition Xrotation Yrotation Zrotation
											JOINT mixamorig1:RightHandMiddle4
											{
												OFFSET -2.855728 -0.604996 0.227592
												CHANNELS 6 Xposition Yposition Zposition Xrotation Yrotation Zrotation
												End Site
												{
													OFFSET -2.855972 -0.604736 0.225131
												}
											}
										}
									}
								}
								JOINT mixamorig1:RightHandRing1
								{
									OFFSET -12.328026 -0.608994 -0.015787
									CHANNELS 6 Xposition Yposition Zposition Xrotation Yrotation Zrotation
									JOINT mixamorig1:RightHandRing2
									{
										OFFSET -2.763496 -0.569153 -0.029507
										CHANNELS 6 Xposition Yposition Zposition Xrotation Yrotation Zrotation
										JOINT mixamorig1:RightHandRing3
										{
											OFFSET -2.573975 -0.772354 -0.042469
											CHANNELS 6 Xposition Yposition Zposition Xrotation Yrotation Zrotation
											JOINT mixamorig1:RightHandRing4
											{
												OFFSET -2.323860 -0.456833 -0.023427
												CHANNELS 6 Xposition Yposition Zposition Xrotation Yrotation Zrotation
												End Site
												{
													OFFSET -2.323814 -0.457275 -0.019363
												}
											}
										}
									}
								}
								JOINT mixamorig1:RightHandPinky1
								{
									OFFSET -11.463135 -0.329407 -2.202621
									CHANNELS 6 Xposition Yposition Zposition Xrotation Yrotation Zrotation
									JOINT mixamorig1:RightHandPinky2
									{
										OFFSET -2.569016 -0.599854 -0.108848
										CHANNELS 6 Xposition Yposition Zposition Xrotation Yrotation Zrotation
										JOINT mixamorig1:RightHandPinky3
										{
											OFFSET -2.016190 -0.737000 -0.102787
											CHANNELS 6 Xposition Yposition Zposition Xrotation Yrotation Zrotation
											JOINT mixamorig1:RightHandPinky4
											{
												OFFSET -1.796242 -0.576553 -0.085258
												CHANNELS 6 Xposition Yposition Zposition Xrotation Yrotation Zrotation
												End Site
												{
													OFFSET -1.796211 -0.576279 -0.087722
												}
											}
										}
									}
								}
							}
						}
					}
				}
			}
		}
	}
	JOINT mixamorig1:LeftUpLeg
	{
		OFFSET 8.078197 -5.402374 -0.535866
		CHANNELS 6 Xposition Yposition Zposition Xrotation Yrotation Zrotation
		JOINT mixamorig1:LeftLeg
		{
			OFFSET 3.743074 -42.540520 -2.695465
			CHANNELS 6 Xposition Yposition Zposition Xrotation Yrotation Zrotation
			JOINT mixamorig1:LeftFoot
			{
				OFFSET 3.359008 -41.940849 -2.882252
				CHANNELS 6 Xposition Yposition Zposition Xrotation Yrotation Zrotation
				JOINT mixamorig1:LeftToeBase
				{
					OFFSET 1.133368 -9.116440 13.321875
					CHANNELS 6 Xposition Yposition Zposition Xrotation Yrotation Zrotation
					JOINT mixamorig1:LeftToe_End
					{
						OFFSET 0.591574 -0.054443 6.177378
						CHANNELS 3 Xrotation Yrotation Zrotation
						End Site
						{
							OFFSET 0.591574 -0.054443 6.177376
						}
					}
				}
			}
		}
	}
	JOINT mixamorig1:RightUpLeg
	{
		OFFSET -8.078202 -5.402405 -0.751774
		CHANNELS 6 Xposition Yposition Zposition Xrotation Yrotation Zrotation
		JOINT mixamorig1:RightLeg
		{
			OFFSET -3.743069 -42.540482 -2.464523
			CHANNELS 3 Xrotation Yrotation Zrotation
			JOINT mixamorig1:RightFoot
			{
				OFFSET -3.359002 -41.940781 -2.968981
				CHANNELS 3 Xrotation Yrotation Zrotation
				JOINT mixamorig1:RightToeBase
				{
					OFFSET -1.133408 -9.116801 13.416486
					CHANNELS 6 Xposition Yposition Zposition Xrotation Yrotation Zrotation
					JOINT mixamorig1:RightToe_End
					{
						OFFSET -0.591589 -0.054615 6.151405
						CHANNELS 3 Xrotation Yrotation Zrotation
						End Site
						{
							OFFSET -0.591589 -0.054615 6.151402
						}
					}
				}
			}
		}
	}
}
MOTION
Frames: 3
Frame Time: 0.033333
-120.024200 1094.545410 36.570621 22.204458 64.599772 -9.617402 -0.000008 9.717332 -1.180188 8.882746 -2.158388 7.486743 0.000080 11.336672 -1.376911 7.094017 -1.218069 3.250636 -0.000042 12.956329 -1.573584 12.455769 -1.861789 5.774819 -0.000053 14.576063 -1.770328 30.914290 -7.157130 7.358459 -0.000014 6.720224 1.972198 -2.001387 -14.407685 12.577638 0.000015 20.999863 6.162825 -0.000001 0.000000 -0.000001 6.140047 12.877945 -1.799428 22.400543 -11.261729 -10.553442 12.545041 -3.431515 -0.057976 -28.444229 -15.461253 -73.349641 25.447262 -1.876400 -1.505549 29.175491 -30.661908 8.230375 23.367630 0.877642 0.971286 6.975910 -4.524488 34.137975 3.575716 -1.761942 3.039461 -0.000002 -0.000002 0.000002 2.860470 -1.409495 2.431584 -0.000001 0.000000 0.000002 2.579045 -1.801544 1.750707 0.000001 0.000002 0.000004 2.409066 -1.461198 1.064207 -0.000001 -0.000001 -0.000004 11.357149 -1.306443 4.439702 0.000000 0.000000 0.000002 3.215126 -0.390898 0.624047 0.000001 -0.000001 0.000003 2.939016 -0.735493 0.560657 -0.000000 0.000000 -0.000005 2.552301 -0.779222 0.483286 -0.000000 0.000000 -0.000004 12.195738 -0.657239 2.108784 0.000000 -0.000000 -0.000002 3.379988 -0.547340 0.236198 -0.000001 0.000001 -0.000002 3.043990 -0.829666 0.195070 0.000000 -0.000000 0.000000 2.806720 -0.600827 0.188482 -0.000000 -0.000000 0.000002 12.563755 -0.458896 -0.154866 -0.000001 -0.000000 0.000001 2.596477 -0.829807 0.032326 0.000001 -0.000000 -0.000001 2.548252 -0.608396 0.044825 -0.000001 0.000001 -0.000001 2.167879 -0.507772 0.038970 0.000000 0.000000 -0.000001 11.341801 -0.310500 -2.253309 -0.000001 0.000001 0.000002 2.648924 -0.669162 -0.120035 -0.000000 -0.000001 -0.000002 2.075174 -0.703933 -0.105194 -0.000001 0.000000 0.000002 1.850603 -0.683965 -0.097381 -0.000001 -0.000000 0.000002 -6.140210 12.877819 -1.741205 19.297644 13.835562 4.822484 -12.544928 -3.431355 0.058299 -37.134734 18.039155 63.104036 -25.447445 -1.876486 -1.671065 4.599183 24.329288 -31.183584 -23.367392 0.877543 0.912228 39.437478 18.872113 -75.435860 -3.655294 -1.787814 3.110001 0.000000 0.000007 0.000002 -2.924330 -1.430269 2.488123 -0.000001 -0.000003 -0.000001 -2.528491 -1.777147 1.706880 0.000001 0.000000 -0.000005 -2.443384 -1.162308 1.073430 -0.000000 0.000005 0.000001 -11.888384 -1.247921 4.755144 -0.000001 0.000001 0.000001 -3.042207 -0.516540 0.442761 -0.000001 0.000002 0.000000 -2.738865 -0.708389 0.392165 0.000001 0.000000 -0.000002 -2.432564 -0.620758 0.348501 0.000002 0.000000 -0.000000 -12.008368 -0.748531 2.098400 -0.000000 0.000001 0.000003 -3.442292 -0.415834 0.287297 -0.000003 0.000003 0.000000 -3.106127 -0.837786 0.240115 0.000002 0.000002 0.000001 -2.855752 -0.605027 0.227613 0.000002 -0.000004 0.000000 -12.328014 -0.609143 -0.015864 -0.000001 0.000002 0.000005 -2.763478 -0.569133 -0.029483 -0.000002 0.000001 -0.000001 -2.573947 -0.772523 -0.042509 0.000001 0.000000 0.000001 -2.323882 -0.456848 -0.023458 0.000001 0.000000 -0.000000 -11.463157 -0.329407 -2.202631 -0.000000 0.000004 0.000002 -2.568980 -0.600052 -0.108914 -0.000000 -0.000004 -0.000002 -2.016174 -0.737079 -0.102808 -0.000001 -0.000003 0.000000 -1.796171 -0.576815 -0.085267 0.000001 0.000001 0.000002 8.078189 -5.402211 -0.535864 -20.637403 23.860950 1.594475 3.743068 -42.540581 -2.695466 25.245190 1.013922 0.463403 3.358988 -41.941036 -2.882312 -5.850983 7.349099 4.655206 1.133379 -9.116405 13.321908 0.000054 -0.000038 -0.000177 0.000000 -0.000000 0.000001 -8.078247 -5.402455 -0.751761 -26.728011 -10.844534 -11.948322 21.863031 2.771024 -0.647794 -4.890801 0.348830 -1.519230 -1.133397 -9.116833 13.416435 0.000061 0.000038 -0.000140 0.000000 -0.000000 0.000000 
-120.017822 1094.487183 36.276382 22.208686 65.793669 -9.955754 0.000003 9.717349 -1.180212 8.842161 -2.145191 7.513415 0.000023 11.336941 -1.376952 7.076108 -1.212434 3.263137 0.000003 12.956294 -1.573651 12.424318 -1.851574 5.795959 -0.000068 14.576058 -1.770468 30.964465 -7.380190 7.653655 0.000091 6.720252 1.972147 -1.848473 -14.858040 13.109440 -0.000001 20.999863 6.162694 -0.000000 -0.000000 0.000002 6.140059 12.877918 -1.799489 22.233143 -11.049434 -10.505990 12.545078 -3.431373 -0.058061 -28.124894 -15.124238 -73.317088 25.446928 -1.876361 -1.505727 29.203136 -30.690967 8.014272 23.367327 0.877661 0.971295 6.889228 -4.534614 33.944090 3.575581 -1.761960 3.039439 0.000000 0.000001 -0.000005 2.860478 -1.409500 2.431527 0.000001 -0.000001 -0.000002 2.579019 -1.801500 1.750687 -0.000002 0.000002 -0.000001 2.408822 -1.461107 1.064132 -0.000000 -0.000003 -0.000000 11.357115 -1.306489 4.439688 0.000001 -0.000001 -0.000002 3.215170 -0.390864 0.624060 -0.000001 -0.000000 0.000001 2.939145 -0.735580 0.560655 -0.000001 0.000001 -0.000002 2.552423 -0.779194 0.483300 -0.000000 0.000000 -0.000004 12.195647 -0.657259 2.108764 0.000000 0.000000 -0.000006 3.379943 -0.547439 0.236204 0.000000 0.000001 0.000000 3.043948 -0.829736 0.195064 -0.000000 -0.000001 0.000002 2.806668 -0.600750 0.188482 -0.000000 -0.000000 0.000005 12.563569 -0.458870 -0.154894 0.000000 -0.000001 -0.000000 2.596569 -0.829903 0.032344 -0.000001 0.000000 0.000001 2.548399 -0.608459 0.044844 -0.000000 0.000001 -0.000002 2.167744 -0.507774 0.038972 0.000000 0.000001 0.000005 11.341763 -0.310595 -2.253319 -0.000000 -0.000000 -0.000005 2.648923 -0.669175 -0.120018 0.000000 -0.000000 -0.000002 2.075217 -0.703870 -0.105180 -0.000000 -0.000000 0.000001 1.850730 -0.684049 -0.097351 -0.000000 0.000000 -0.000003 -6.140217 12.877869 -1.741305 19.184847 13.954726 4.960029 -12.544965 -3.431449 0.058090 -36.814945 17.544919 62.455339 -25.447269 -1.876434 -1.671063 2.984479 24.274636 -30.744437 -23.367565 0.877590 0.912107 39.637015 19.456641 -75.202275 -3.655289 -1.787585 3.110002 -0.000002 0.000000 0.000000 -2.924327 -1.430130 2.488143 -0.000001 0.000000 0.000001 -2.528552 -1.776904 1.706966 -0.000000 -0.000005 -0.000005 -2.443369 -1.162416 1.073432 -0.000001 -0.000000 0.000001 -11.888365 -1.247680 4.755162 -0.000000 0.000000 -0.000001 -3.042230 -0.516327 0.442835 0.000001 0.000001 0.000000 -2.738898 -0.708342 0.392124 -0.000000 0.000002 -0.000001 -2.432591 -0.620724 0.348536 -0.000002 0.000001 0.000002 -12.008335 -0.748396 2.098378 -0.000002 -0.000001 0.000002 -3.442281 -0.415788 0.287266 -0.000002 0.000003 -0.000001 -3.106221 -0.837478 0.240145 -0.000002 0.000004 0.000002 -2.855726 -0.604844 0.227599 0.000002 -0.000004 0.000002 -12.328016 -0.608843 -0.015807 -0.000001 0.000003 0.000002 -2.763485 -0.569016 -0.029415 -0.000000 0.000001 -0.000001 -2.573973 -0.772417 -0.042505 -0.000000 -0.000001 -0.000000 -2.323889 -0.456600 -0.023442 -0.000001 -0.000001 -0.000000 -11.463123 -0.329255 -2.202651 -0.000002 0.000004 0.000002 -2.569019 -0.599790 -0.108825 0.000001 -0.000003 0.000002 -2.016187 -0.737033 -0.102738 0.000001 0.000000 0.000002 -1.796255 -0.576675 -0.085242 0.000002 -0.000001 0.000002 8.078142 -5.402439 -0.535889 -20.556216 23.955454 2.191703 3.743037 -42.540409 -2.695447 25.484798 1.913103 0.258106 3.358993 -41.941029 -2.882183 -5.883653 7.360677 4.726996 1.133371 -9.116459 13.321917 0.000052 -0.000041 -0.000185 0.000000 0.000000 0.000000 -8.078206 -5.402361 -0.751786 -26.360514 -11.187513 -12.121129 21.922679 2.779390 -0.731116 -4.906719 -0.523373 -1.360885 -1.133394 -9.116781 13.416523 0.000049 0.000034 -0.000125 0.000000 -0.000001 0.000000 
-120.011444 1094.428955 35.982132 22.231151 66.987531 -10.310851 0.000011 9.717243 -1.180221 8.800902 -2.132470 7.539318 -0.000046 11.336656 -1.376884 7.057902 -1.207021 3.275307 0.000004 12.956295 -1.573680 12.392391 -1.841872 5.816622 -0.000033 14.575849 -1.770464 31.018235 -7.602912 7.949134 -0.000016 6.720214 1.972187 -1.686484 -15.307692 13.642794 -0.000016 20.999832 6.162725 -0.000002 0.000000 -0.000001 6.140062 12.877737 -1.799514 22.060886 -10.840764 -10.459642 12.545058 -3.431365 -0.057895 -27.807667 -14.784486 -73.276933 25.447199 -1.876443 -1.505653 29.229682 -30.714387 7.796827 23.367393 0.877614 0.971289 6.802604 -4.539310 33.749918 3.575471 -1.761900 3.039438 -0.000001 -0.000003 0.000006 2.860310 -1.409409 2.431504 0.000000 0.000001 0.000001 2.579072 -1.801525 1.750679 -0.000003 0.000003 -0.000000 2.408929 -1.461103 1.064180 -0.000003 0.000000 -0.000004 11.357077 -1.306502 4.439690 -0.000001 -0.000000 0.000004 3.215300 -0.390975 0.624073 -0.000000 -0.000000 0.000001 2.938875 -0.735446 0.560638 -0.000000 -0.000000 -0.000004 2.552465 -0.779148 0.483281 -0.000001 -0.000001 -0.000002 12.195572 -0.657248 2.108770 0.000001 -0.000001 0.000006 3.379832 -0.547368 0.236209 -0.000000 0.000001 0.000002 3.043913 -0.829766 0.195069 -0.000001 0.000000 -0.000002 2.806648 -0.600772 0.188469 0.000001 0.000000 -0.000003 12.563521 -0.458878 -0.154888 0.000000 -0.000000 0.000007 2.596612 -0.829744 0.032347 -0.000000 0.000000 -0.000004 2.548514 -0.608458 0.044838 -0.000000 -0.000000 0.000004 2.167803 -0.507818 0.038937 -0.000001 0.000000 -0.000001 11.341607 -0.310521 -2.253322 0.000001 -0.000000 0.000006 2.648908 -0.669147 -0.120018 0.000000 -0.000000 -0.000002 2.075269 -0.703936 -0.105199 -0.000000 -0.000001 0.000007 1.850794 -0.684033 -0.097352 0.000000 0.000001 0.000002 -6.140194 12.877642 -1.741370 19.068235 14.072013 5.096961 -12.544953 -3.431335 0.058199 -36.488206 17.046006 61.815657 -25.447277 -1.876436 -1.671029 1.370648 24.195313 -30.300171 -23.367481 0.877541 0.912085 39.836470 20.042022 -74.971783 -3.655305 -1.787784 3.110061 -0.000000 -0.000000 0.000000 -2.924304 -1.430241 2.488070 0.000001 0.000003 0.000001 -2.528583 -1.776944 1.706967 -0.000001 -0.000004 -0.000002 -2.443384 -1.162309 1.073512 -0.000000 0.000002 -0.000003 -11.888398 -1.247817 4.755233 0.000000 -0.000003 -0.000003 -3.042280 -0.516372 0.442785 -0.000000 -0.000003 -0.000001 -2.738864 -0.708464 0.392161 -0.000000 -0.000003 -0.000002 -2.432599 -0.620635 0.348541 -0.000001 -0.000003 -0.000001 -12.008353 -0.748596 2.098429 -0.000001 -0.000003 -0.000000 -3.442325 -0.415712 0.287320 -0.000003 0.000004 0.000001 -3.106158 -0.837619 0.240100 -0.000001 0.000002 0.000001 -2.855728 -0.605043 0.227541 0.000003 -0.000007 0.000000 -12.328014 -0.609084 -0.015776 -0.000000 -0.000003 0.000002 -2.763492 -0.569087 -0.029502 -0.000002 -0.000001 -0.000002 -2.573944 -0.772478 -0.042494 0.000001 -0.000003 0.000000 -2.323854 -0.456802 -0.023420 0.000001 -0.000001 -0.000002 -11.463152 -0.329438 -2.202581 0.000001 0.000004 0.000001 -2.569036 -0.599704 -0.108783 -0.000002 0.000002 0.000002 -2.016161 -0.737109 -0.102750 0.000001 0.000003 0.000001 -1.796200 -0.576505 -0.085253 0.000002 -0.000001 -0.000001 8.078173 -5.402523 -0.535847 -20.490718 24.048181 2.796989 3.743109 -42.540531 -2.695476 25.732833 2.811745 0.056619 3.359010 -41.940769 -2.882212 -5.919068 7.372405 4.797715 1.133380 -9.116682 13.321870 0.000034 -0.000036 -0.000175 -0.000000 0.000000 -0.000000 -8.078190 -5.402370 -0.751797 -25.990045 -11.532538 -12.284507 21.983427 2.787922 -0.813635 -4.917759 -1.395430 -1.201602 -1.133388 -9.116849 13.416458 0.000056 0.000012 -0.000132 0.000000 -0.000000 0.000000 
